<?xml version="1.0" encoding="UTF-8"?>
<svg width="700pt" height="700pt" version="1.1" viewBox="0 0 700 700" xmlns="http://www.w3.org/2000/svg" fill="white">
  <path d="m151.67 466.67c-6.4453 0-11.668 5.2227-11.668 11.664 0 3.0938 1.2305 6.0625 3.418 8.25s5.1562 3.418 8.25 3.418h396.67-0.003907c3.0938 0 6.0625-1.2305 8.25-3.418s3.418-5.1562 3.418-8.25-1.2305-6.0586-3.418-8.25c-2.1875-2.1875-5.1562-3.4141-8.25-3.4141z"/>
  <path d="m315 70c-19.191 0-35 15.809-35 35v151.67h-105c-4.7188 0-8.9688 2.8438-10.773 7.2031-1.8086 4.3555-0.80859 9.375 2.5234 12.711l155.09 155.09c7.4688 7.4648 17.605 11.664 28.164 11.664s20.695-4.1992 28.164-11.668l155.09-155.09v0.003906c3.332-3.3359 4.332-8.3555 2.5234-12.711-1.8047-4.3594-6.0547-7.2031-10.773-7.2031h-105v-151.67c0-19.191-15.809-35-35-35z"/>
</svg>
