<?xml version="1.0" encoding="UTF-8"?>
<svg width="700pt" height="700pt" version="1.1" viewBox="0 0 700 700" xmlns="http://www.w3.org/2000/svg">
  <path d="m239.12 169.13c10.934-10.934 28.664-10.934 39.598 0l71.277 71.277 71.277-71.277c10.934-10.934 28.664-10.934 39.598 0s10.934 28.664 0 39.598l-71.277 71.277 71.277 71.277c10.934 10.934 10.934 28.664 0 39.598s-28.664 10.934-39.598 0l-71.277-71.281-71.277 71.277c-10.934 10.934-28.664 10.934-39.598 0s-10.934-28.664 0-39.598l71.277-71.277-71.277-71.277c-10.934-10.934-10.934-28.664 0-39.598z" fill="white"/>
</svg>
