<svg width="700pt" height="700pt" version="1.1" viewBox="0 0 700 700" xmlns="http://www.w3.org/2000/svg">
 <path d="m435.06 381.56c-35.035 31.16-81.188 50.109-131.73 50.109-109.47 0-198.33-88.867-198.33-198.34s88.863-198.33 198.33-198.33 198.34 88.863 198.34 198.33c0 50.543-18.949 96.695-50.109 131.73l19.938 19.938 8.25-8.25c4.5625-4.5586 11.945-4.5586 16.508 0 0 0 88.492 88.504 88.492 88.504 13.66 13.652 13.66 35.84 0 49.492-13.652 13.66-35.84 13.66-49.492 0l-88.504-88.492c-4.5586-4.5625-4.5586-11.945 0-16.508l8.25-8.25zm-131.73-323.23c-96.586 0-175 78.414-175 175 0 96.59 78.414 175 175 175 96.59 0 175-78.41 175-175 0-96.586-78.41-175-175-175z" fill="white"/>
</svg>
